<svg version="1.1" id="Layer_1" xmlns="http://www.w3.org/2000/svg" xmlns:xlink="http://www.w3.org/1999/xlink" x="0px" y="0px"
	 width="100%" viewBox="0 0 166 304" enable-background="new 0 0 166 304" xml:space="preserve">
<path fill="#FEFEFE" opacity="1.000000" stroke="none" 
	d="
M1.000000,125.000000 
	C1.000000,83.333344 1.000000,42.166687 1.000000,1.000022 
	C56.333309,1.000015 111.666618,1.000015 166.999939,1.000007 
	C166.999969,102.333282 166.999969,203.666565 166.999985,304.999878 
	C111.666725,304.999939 56.333454,304.999939 1.000091,304.999969 
	C1.000000,245.166672 1.000000,185.333328 1.000000,125.000000 
M153.939713,243.425171 
	C153.656937,243.183365 153.374161,242.941559 152.795624,242.087097 
	C149.004028,240.714554 145.276169,239.095993 141.389786,238.089355 
	C139.814117,237.681213 137.902222,238.675247 136.127411,238.911713 
	C131.434509,239.536942 126.732910,240.096817 121.620071,240.734421 
	C122.523590,243.825256 123.007530,245.480743 123.404404,246.838394 
	C128.130615,246.160446 132.365494,245.175812 136.630478,245.021149 
	C145.034592,244.716354 147.716492,248.143158 146.407166,257.122864 
	C145.026794,257.241791 143.540283,257.206207 142.131744,257.520294 
	C136.840881,258.700073 131.252045,259.266418 126.383133,261.430939 
	C120.422661,264.080719 118.342346,270.821350 120.017296,277.717133 
	C121.281837,282.923279 125.257233,285.711426 131.969925,286.416351 
	C138.214249,287.072113 143.185776,284.227325 148.223816,281.732849 
	C148.708694,287.488403 152.657822,285.458466 155.993713,285.371399 
	C155.993713,273.420410 155.993713,261.711609 156.085419,249.288239 
	C155.737579,248.188965 155.389740,247.089676 155.029175,245.388000 
	C154.695129,244.909958 154.361099,244.431915 153.994034,243.990280 
	C153.994034,243.990280 154.042877,243.985046 153.939713,243.425171 
M158.333160,191.183563 
	C151.910217,193.786743 145.684845,197.168671 139.029816,198.856979 
	C111.669739,205.797836 83.744102,205.984253 55.760880,204.759155 
	C51.355026,204.566269 46.958771,204.153931 42.558079,203.843063 
	C42.512180,204.290054 42.466278,204.737030 42.420380,205.184021 
	C49.048450,206.125504 55.648930,207.517090 62.309681,207.925385 
	C83.570801,209.228638 104.874214,209.335693 125.938217,205.850082 
	C134.853821,204.374786 143.632599,201.548340 152.139847,198.426575 
	C154.946762,197.396545 156.706482,193.512802 159.391068,191.108292 
	C159.438324,190.845612 159.485565,190.582947 159.532822,190.320267 
	C159.362717,190.557968 159.192596,190.795670 158.333160,191.183563 
M27.345572,188.812515 
	C25.516603,187.863434 23.687637,186.914352 20.965473,185.501770 
	C23.561571,183.631470 25.352575,182.341187 28.046230,180.947113 
	C28.500334,180.245316 28.954437,179.543518 29.408541,178.841721 
	C27.937872,178.927582 26.467203,179.013443 24.319180,179.092331 
	C22.882942,179.710770 21.446705,180.329224 19.360180,180.945892 
	C18.817636,181.261154 18.275091,181.576416 17.041162,181.961670 
	C14.396238,184.437057 11.751314,186.912445 9.106380,189.387833 
	C12.417276,190.958817 15.585832,193.312241 19.067301,193.945587 
	C27.549509,195.488647 36.157070,196.439972 44.749249,197.263397 
	C73.687759,200.036789 102.516464,199.565552 130.967789,192.986191 
	C136.872086,191.620834 142.581604,189.112427 148.111282,186.549179 
	C151.070694,185.177353 152.640182,182.493774 148.810822,179.658951 
	C147.833572,184.469421 146.534698,186.100998 139.455154,187.471085 
	C128.054657,189.677368 116.533356,191.286438 105.031921,192.929626 
	C100.858650,193.525864 96.593674,193.744049 92.374527,193.704895 
	C80.619820,193.595886 68.867508,193.242432 57.113068,193.062149 
	C56.377213,193.050842 55.631248,193.698776 54.604172,193.642029 
	C54.267883,193.444672 53.931591,193.247314 53.595295,193.049957 
	C53.604328,193.341095 53.613365,193.632217 52.966541,193.230164 
	C45.423637,192.109741 37.880730,190.989334 29.884983,189.404373 
	C29.261322,189.293701 28.637659,189.183044 27.345572,188.812515 
M15.425791,222.074783 
	C15.290038,222.381607 15.154286,222.688446 14.874661,223.923965 
	C14.864382,240.887039 14.768338,257.850647 14.878726,274.812958 
	C14.937015,283.769348 14.278296,292.262360 4.883761,296.752228 
	C9.694852,303.292908 9.673648,303.262054 15.625857,299.170135 
	C20.551775,295.783722 24.050383,291.288940 24.168526,285.262482 
	C24.575558,264.499878 24.640472,243.730545 24.874949,222.465622 
	C24.694674,222.100189 24.412615,221.985870 23.144777,221.973099 
	C20.756199,222.013199 18.367619,222.053284 15.425791,222.074783 
M66.341248,243.337021 
	C63.400749,241.613998 60.524448,238.588638 57.506351,238.439865 
	C51.277737,238.132843 44.945293,239.156357 38.709423,240.020966 
	C33.834415,240.696884 34.089035,243.627029 36.010899,246.886520 
	C40.428955,246.204224 44.482887,245.199402 48.572323,245.024429 
	C57.438915,244.645096 60.141003,248.063187 58.466129,257.167572 
	C57.066734,257.258026 55.573353,257.195007 54.147732,257.475922 
	C49.455803,258.400421 44.523186,258.805817 40.172497,260.598511 
	C33.297707,263.431274 30.411102,270.554596 32.323158,277.575439 
	C34.015152,283.788208 39.563873,287.484528 47.166309,286.338135 
	C51.743275,285.647949 56.094120,283.458191 60.518627,281.951843 
	C61.632835,286.359436 62.104084,286.562500 68.847649,284.881592 
	C68.847649,273.491577 68.954750,262.029480 68.754784,250.572739 
	C68.716072,248.354752 67.478020,246.157700 66.341248,243.337021 
M109.480881,25.825348 
	C111.137444,18.917013 110.996422,12.319139 106.187057,5.852665 
	C105.020203,26.802794 102.768204,31.376398 87.413635,44.265034 
	C84.357895,46.830021 81.078369,49.134388 78.088089,51.770016 
	C73.106339,56.160912 67.888016,60.374706 63.469296,65.292076 
	C56.527264,73.017502 55.671597,80.810196 61.235344,89.487778 
	C65.234436,95.725006 70.485764,101.169296 75.309471,106.856209 
	C75.969757,107.634651 77.389450,107.768951 78.457550,108.201477 
	C78.729385,107.869019 79.001221,107.536552 79.273048,107.204086 
	C77.270683,104.047539 75.214767,100.923500 73.275398,97.728706 
	C65.646385,85.161125 66.628426,75.500694 76.891991,64.876472 
	C80.229721,61.421471 84.047218,58.425503 87.686829,55.267460 
	C96.925621,47.251076 105.552292,38.783943 109.480881,25.825348 
M110.004158,261.433838 
	C111.739700,254.439240 113.475243,247.444641 115.290047,240.130615 
	C111.330093,240.130615 108.267296,240.130615 105.703049,240.130615 
	C102.705322,251.794067 99.819771,263.021118 96.934219,274.248138 
	C93.062485,265.206207 90.469131,256.501129 87.821838,247.812439 
	C85.142342,239.018051 85.118874,239.024292 75.840614,240.028015 
	C75.686356,240.044708 75.544266,240.173935 75.010674,240.450928 
	C79.244606,254.137436 83.421814,267.927063 87.868477,281.629272 
	C88.387299,283.228027 90.526360,285.576691 91.687729,285.452881 
	C95.219460,285.076324 99.992218,288.235291 102.112381,282.723755 
	C104.733795,275.909149 107.241371,269.050751 110.004158,261.433838 
M106.465485,96.305885 
	C103.990509,92.567909 101.407928,88.895935 99.065430,85.076698 
	C95.427254,79.144966 95.848000,73.317810 100.320763,68.018013 
	C102.559944,65.364784 105.082527,62.893280 107.757767,60.678856 
	C111.869553,57.275326 116.223274,54.164074 120.899933,50.604916 
	C119.518684,50.334290 118.718254,50.077782 117.910202,50.050972 
	C117.274391,50.029877 116.587593,50.193420 115.994385,50.443348 
	C106.901009,54.274456 98.199982,58.771107 91.488670,66.246262 
	C84.089043,74.488060 83.058556,83.672737 88.437592,93.360825 
	C89.959785,96.102432 91.815117,98.711311 93.836899,101.112236 
	C97.831467,105.855927 99.337303,110.872276 96.533745,116.738800 
	C96.248268,117.336159 96.324776,118.106506 96.202988,119.025314 
	C105.250778,115.383636 109.715454,105.835709 106.465485,96.305885 
M53.384308,174.232513 
	C74.495476,182.206848 95.175301,179.765869 116.465034,172.242432 
	C109.897942,167.991928 104.144768,166.791046 96.960625,167.578400 
	C85.331184,168.852905 73.461716,168.012238 61.694962,167.909180 
	C58.525661,167.881424 55.601986,166.959610 55.176762,161.370209 
	C52.140442,164.425323 49.533100,166.265411 48.271587,168.780533 
	C47.877010,169.567215 51.111431,172.174088 53.384308,174.232513 
M59.953548,147.857239 
	C56.183964,146.346832 49.478683,149.092957 50.314362,140.464035 
	C48.211205,141.514755 46.364044,142.213898 44.762623,143.281616 
	C40.736969,145.965652 40.846611,148.832596 45.251720,151.089294 
	C47.872219,152.431763 50.773640,153.407379 53.660866,154.017288 
	C68.825684,157.220749 84.097054,156.625198 99.319061,154.598053 
	C105.930443,153.717606 112.435905,152.041916 118.989479,150.727417 
	C119.028854,150.194031 119.068230,149.660629 119.107605,149.127228 
	C116.055382,147.824326 112.928848,145.271469 109.964554,145.447678 
	C100.204887,146.027832 90.503998,147.596558 80.780502,148.785294 
	C78.186584,149.102417 75.566322,149.814102 73.004562,149.644333 
	C68.934654,149.374603 64.903755,148.516129 59.953548,147.857239 
M47.488701,128.224976 
	C45.071388,127.568359 42.654072,126.911736 40.236759,126.255119 
	C40.122417,125.506462 40.008076,124.757805 39.893734,124.009148 
	C45.367035,121.721840 50.840336,119.434540 57.040352,116.843544 
	C46.065834,116.999504 36.705235,120.152771 27.825064,124.873833 
	C24.970598,126.391380 24.920906,128.543457 28.049234,129.900208 
	C30.308641,130.880112 32.751011,131.632919 35.184513,131.986649 
	C60.915417,135.726929 86.569588,135.016449 112.124725,130.346939 
	C114.753998,129.866516 117.322510,129.053513 119.919212,128.394836 
	C119.894394,127.866760 119.869576,127.338692 119.844749,126.810616 
	C118.246872,126.534470 116.624153,125.927330 115.055840,126.045036 
	C110.584885,126.380615 106.134193,126.995583 101.679001,127.529495 
	C94.973930,128.333038 88.289696,129.560791 81.563194,129.861938 
	C75.327858,130.141083 69.047806,129.459869 62.789093,129.166183 
	C57.974716,128.940277 53.162914,128.659531 47.488701,128.224976 
M137.796249,116.989914 
	C149.541565,117.360336 155.521820,126.845657 149.180511,136.255356 
	C145.674866,141.457321 140.109665,145.292679 135.359909,149.620087 
	C134.156158,150.716797 132.520218,151.339142 131.082870,152.179459 
	C131.288742,152.541656 131.494614,152.903839 131.700485,153.266022 
	C140.340378,150.980652 148.360199,147.416489 154.716675,140.784576 
	C160.564896,134.682953 161.655182,127.612007 157.930359,121.733681 
	C154.140167,115.752197 144.475098,112.603012 137.516281,115.176025 
	C137.169083,115.304398 137.156631,116.338120 137.796249,116.989914 
M37.699615,176.929169 
	C34.758595,177.317200 31.817574,177.705246 28.876553,178.093277 
	C29.031973,178.759506 29.187393,179.425735 29.342813,180.091965 
	C32.875187,179.347061 36.407562,178.602173 39.939938,177.857285 
	C39.903927,177.649429 39.867916,177.441574 39.831905,177.233734 
	C39.372196,177.141571 38.912487,177.049408 37.699615,176.929169 
z"/>
<path fill="#5785A3" opacity="1.000000" stroke="none" 
	d="
M66.567223,243.644012 
	C67.478020,246.157700 68.716072,248.354752 68.754784,250.572739 
	C68.954750,262.029480 68.847649,273.491577 68.847649,284.881592 
	C62.104084,286.562500 61.632835,286.359436 60.518627,281.951843 
	C56.094120,283.458191 51.743275,285.647949 47.166309,286.338135 
	C39.563873,287.484528 34.015152,283.788208 32.323158,277.575439 
	C30.411102,270.554596 33.297707,263.431274 40.172497,260.598511 
	C44.523186,258.805817 49.455803,258.400421 54.147732,257.475922 
	C55.573353,257.195007 57.066734,257.258026 58.466129,257.167572 
	C60.141003,248.063187 57.438915,244.645096 48.572323,245.024429 
	C44.482887,245.199402 40.428955,246.204224 36.010899,246.886520 
	C34.089035,243.627029 33.834415,240.696884 38.709423,240.020966 
	C44.945293,239.156357 51.277737,238.132843 57.506351,238.439865 
	C60.524448,238.588638 63.400749,241.613998 66.567223,243.644012 
M43.856445,266.412994 
	C40.773975,269.884766 40.477921,273.908478 43.376553,277.199951 
	C46.618755,280.881592 50.978691,279.605164 54.836788,277.735809 
	C59.617958,275.419220 60.308510,272.458618 58.158745,262.982635 
	C53.626945,263.953308 49.065094,264.930389 43.856445,266.412994 
z"/>
<path fill="#5583A2" opacity="1.000000" stroke="none" 
	d="
M155.041901,245.990402 
	C155.389740,247.089676 155.737579,248.188965 155.743835,249.940277 
	C155.267776,259.141174 155.081573,267.689575 155.013397,276.238953 
	C154.946121,284.677765 154.998489,284.678192 148.064407,280.980591 
	C143.185776,284.227325 138.214249,287.072113 131.969925,286.416351 
	C125.257233,285.711426 121.281837,282.923279 120.017296,277.717133 
	C118.342346,270.821350 120.422661,264.080719 126.383133,261.430939 
	C131.252045,259.266418 136.840881,258.700073 142.131744,257.520294 
	C143.540283,257.206207 145.026794,257.241791 146.407166,257.122864 
	C147.716492,248.143158 145.034592,244.716354 136.630478,245.021149 
	C132.365494,245.175812 128.130615,246.160446 123.404404,246.838394 
	C123.007530,245.480743 122.523590,243.825256 121.620071,240.734421 
	C126.732910,240.096817 131.434509,239.536942 136.127411,238.911713 
	C137.902222,238.675247 139.814117,237.681213 141.389786,238.089355 
	C145.276169,239.095993 149.004028,240.714554 153.009491,242.667725 
	C153.496536,243.493912 153.769699,243.739487 154.042877,243.985046 
	C154.042877,243.985046 153.994034,243.990280 154.024338,244.278046 
	C154.383728,245.040680 154.712814,245.515533 155.041901,245.990402 
M138.845993,263.865814 
	C131.389450,264.833771 128.138321,268.083252 129.117386,273.589478 
	C129.928406,278.150665 133.634384,280.186188 139.037155,279.037811 
	C146.423309,277.467957 148.549500,272.986145 146.119202,263.787354 
	C144.031662,263.787354 141.888596,263.787354 138.845993,263.865814 
z"/>
<path fill="#F8981C" opacity="1.000000" stroke="none" 
	d="
M109.357010,26.210140 
	C105.552292,38.783943 96.925621,47.251076 87.686829,55.267460 
	C84.047218,58.425503 80.229721,61.421471 76.891991,64.876472 
	C66.628426,75.500694 65.646385,85.161125 73.275398,97.728706 
	C75.214767,100.923500 77.270683,104.047539 79.273048,107.204086 
	C79.001221,107.536552 78.729385,107.869019 78.457550,108.201477 
	C77.389450,107.768951 75.969757,107.634651 75.309471,106.856209 
	C70.485764,101.169296 65.234436,95.725006 61.235344,89.487778 
	C55.671597,80.810196 56.527264,73.017502 63.469296,65.292076 
	C67.888016,60.374706 73.106339,56.160912 78.088089,51.770016 
	C81.078369,49.134388 84.357895,46.830021 87.413635,44.265034 
	C102.768204,31.376398 105.020203,26.802794 106.187057,5.852665 
	C110.996422,12.319139 111.137444,18.917013 109.357010,26.210140 
z"/>
<path fill="#5684A3" opacity="1.000000" stroke="none" 
	d="
M109.901146,261.822571 
	C107.241371,269.050751 104.733795,275.909149 102.112381,282.723755 
	C99.992218,288.235291 95.219460,285.076324 91.687729,285.452881 
	C90.526360,285.576691 88.387299,283.228027 87.868477,281.629272 
	C83.421814,267.927063 79.244606,254.137436 75.010674,240.450928 
	C75.544266,240.173935 75.686356,240.044708 75.840614,240.028015 
	C85.118874,239.024292 85.142342,239.018051 87.821838,247.812439 
	C90.469131,256.501129 93.062485,265.206207 96.934219,274.248138 
	C99.819771,263.021118 102.705322,251.794067 105.703049,240.130615 
	C108.267296,240.130615 111.330093,240.130615 115.290047,240.130615 
	C113.475243,247.444641 111.739700,254.439240 109.901146,261.822571 
z"/>
<path fill="#5483A2" opacity="1.000000" stroke="none" 
	d="
M24.835712,222.963776 
	C24.640472,243.730545 24.575558,264.499878 24.168526,285.262482 
	C24.050383,291.288940 20.551775,295.783722 15.625857,299.170135 
	C9.673648,303.262054 9.694852,303.292908 4.883761,296.752228 
	C14.278296,292.262360 14.937015,283.769348 14.878726,274.812958 
	C14.768338,257.850647 14.864382,240.887039 15.157944,223.370300 
	C15.711754,222.643433 15.891025,222.402344 15.979039,222.093384 
	C18.367619,222.053284 20.756199,222.013199 23.670444,222.231476 
	C24.357174,222.718170 24.570375,222.876144 24.835712,222.963776 
z"/>
<path fill="#5181A1" opacity="1.000000" stroke="none" 
	d="
M27.143579,181.050903 
	C25.352575,182.341187 23.561571,183.631470 20.965473,185.501770 
	C23.687637,186.914352 25.516603,187.863434 27.893864,189.188522 
	C29.074047,189.665985 29.705936,189.767456 30.337826,189.868927 
	C37.880730,190.989334 45.423637,192.109741 53.433876,193.612473 
	C54.229595,194.032333 54.559189,194.047409 54.889992,194.040009 
	C55.631248,193.698776 56.377213,193.050842 57.113068,193.062149 
	C68.867508,193.242432 80.619820,193.595886 92.374527,193.704895 
	C96.593674,193.744049 100.858650,193.525864 105.031921,192.929626 
	C116.533356,191.286438 128.054657,189.677368 139.455154,187.471085 
	C146.534698,186.100998 147.833572,184.469421 148.810822,179.658951 
	C152.640182,182.493774 151.070694,185.177353 148.111282,186.549179 
	C142.581604,189.112427 136.872086,191.620834 130.967789,192.986191 
	C102.516464,199.565552 73.687759,200.036789 44.749249,197.263397 
	C36.157070,196.439972 27.549509,195.488647 19.067301,193.945587 
	C15.585832,193.312241 12.417276,190.958817 9.106385,189.387848 
	C11.751314,186.912445 14.396238,184.437057 17.720249,181.943069 
	C18.936380,181.598877 19.473425,181.273270 20.010469,180.947662 
	C21.446705,180.329224 22.882942,179.710770 24.714540,179.418549 
	C25.787794,180.180145 26.465689,180.615524 27.143579,181.050903 
z"/>
<path fill="#F8991E" opacity="1.000000" stroke="none" 
	d="
M106.664612,96.643829 
	C109.715454,105.835709 105.250778,115.383636 96.202988,119.025314 
	C96.324776,118.106506 96.248268,117.336159 96.533745,116.738800 
	C99.337303,110.872276 97.831467,105.855927 93.836899,101.112236 
	C91.815117,98.711311 89.959785,96.102432 88.437592,93.360825 
	C83.058556,83.672737 84.089043,74.488060 91.488670,66.246262 
	C98.199982,58.771107 106.901009,54.274456 115.994385,50.443348 
	C116.587593,50.193420 117.274391,50.029877 117.910202,50.050972 
	C118.718254,50.077782 119.518684,50.334290 120.899933,50.604916 
	C116.223274,54.164074 111.869553,57.275326 107.757767,60.678856 
	C105.082527,62.893280 102.559944,65.364784 100.320763,68.018013 
	C95.848000,73.317810 95.427254,79.144966 99.065430,85.076698 
	C101.407928,88.895935 103.990509,92.567909 106.664612,96.643829 
z"/>
<path fill="#5684A3" opacity="1.000000" stroke="none" 
	d="
M53.034500,174.090149 
	C51.111431,172.174088 47.877010,169.567215 48.271587,168.780533 
	C49.533100,166.265411 52.140442,164.425323 55.176762,161.370209 
	C55.601986,166.959610 58.525661,167.881424 61.694962,167.909180 
	C73.461716,168.012238 85.331184,168.852905 96.960625,167.578400 
	C104.144768,166.791046 109.897942,167.991928 116.465034,172.242432 
	C95.175301,179.765869 74.495476,182.206848 53.034500,174.090149 
z"/>
<path fill="#5684A3" opacity="1.000000" stroke="none" 
	d="
M60.404949,147.881973 
	C64.903755,148.516129 68.934654,149.374603 73.004562,149.644333 
	C75.566322,149.814102 78.186584,149.102417 80.780502,148.785294 
	C90.503998,147.596558 100.204887,146.027832 109.964554,145.447678 
	C112.928848,145.271469 116.055382,147.824326 119.107605,149.127228 
	C119.068230,149.660629 119.028854,150.194031 118.989479,150.727417 
	C112.435905,152.041916 105.930443,153.717606 99.319061,154.598053 
	C84.097054,156.625198 68.825684,157.220749 53.660866,154.017288 
	C50.773640,153.407379 47.872219,152.431763 45.251720,151.089294 
	C40.846611,148.832596 40.736969,145.965652 44.762623,143.281616 
	C46.364044,142.213898 48.211205,141.514755 50.314362,140.464035 
	C49.478683,149.092957 56.183964,146.346832 60.404949,147.881973 
z"/>
<path fill="#5181A1" opacity="1.000000" stroke="none" 
	d="
M47.919334,128.314072 
	C53.162914,128.659531 57.974716,128.940277 62.789093,129.166183 
	C69.047806,129.459869 75.327858,130.141083 81.563194,129.861938 
	C88.289696,129.560791 94.973930,128.333038 101.679001,127.529495 
	C106.134193,126.995583 110.584885,126.380615 115.055840,126.045036 
	C116.624153,125.927330 118.246872,126.534470 119.844749,126.810616 
	C119.869576,127.338692 119.894394,127.866760 119.919212,128.394836 
	C117.322510,129.053513 114.753998,129.866516 112.124725,130.346939 
	C86.569588,135.016449 60.915417,135.726929 35.184513,131.986649 
	C32.751011,131.632919 30.308641,130.880112 28.049234,129.900208 
	C24.920906,128.543457 24.970598,126.391380 27.825064,124.873833 
	C36.705235,120.152771 46.065834,116.999504 57.040352,116.843544 
	C50.840336,119.434540 45.367035,121.721840 39.893734,124.009148 
	C40.008076,124.757805 40.122417,125.506462 40.236759,126.255119 
	C42.654072,126.911736 45.071388,127.568359 47.919334,128.314072 
z"/>
<path fill="#5282A1" opacity="1.000000" stroke="none" 
	d="
M158.945038,190.933899 
	C156.706482,193.512802 154.946762,197.396545 152.139847,198.426575 
	C143.632599,201.548340 134.853821,204.374786 125.938217,205.850082 
	C104.874214,209.335693 83.570801,209.228638 62.309681,207.925385 
	C55.648930,207.517090 49.048450,206.125504 42.420380,205.184021 
	C42.466278,204.737030 42.512180,204.290054 42.558079,203.843063 
	C46.958771,204.153931 51.355026,204.566269 55.760880,204.759155 
	C83.744102,205.984253 111.669739,205.797836 139.029816,198.856979 
	C145.684845,197.168671 151.910217,193.786743 158.658539,191.083527 
	C158.983932,190.983505 158.945038,190.933899 158.945038,190.933899 
z"/>
<path fill="#5584A3" opacity="1.000000" stroke="none" 
	d="
M137.392288,116.970093 
	C137.156631,116.338120 137.169083,115.304398 137.516281,115.176025 
	C144.475098,112.603012 154.140167,115.752197 157.930359,121.733681 
	C161.655182,127.612007 160.564896,134.682953 154.716675,140.784576 
	C148.360199,147.416489 140.340378,150.980652 131.700485,153.266022 
	C131.494614,152.903839 131.288742,152.541656 131.082870,152.179459 
	C132.520218,151.339142 134.156158,150.716797 135.359909,149.620087 
	C140.109665,145.292679 145.674866,141.457321 149.180511,136.255356 
	C155.521820,126.845657 149.541565,117.360336 137.392288,116.970093 
z"/>
<path fill="#5283A2" opacity="1.000000" stroke="none" 
	d="
M148.144104,281.356720 
	C154.998489,284.678192 154.946121,284.677765 155.013397,276.238953 
	C155.081573,267.689575 155.267776,259.141174 155.697998,250.297562 
	C155.993713,261.711609 155.993713,273.420410 155.993713,285.371399 
	C152.657822,285.458466 148.708694,287.488403 148.144104,281.356720 
z"/>
<path fill="#5987A5" opacity="1.000000" stroke="none" 
	d="
M38.076195,176.943207 
	C38.912487,177.049408 39.372196,177.141571 39.831905,177.233734 
	C39.867916,177.441574 39.903927,177.649429 39.939938,177.857285 
	C36.407562,178.602173 32.875187,179.347061 29.342813,180.091965 
	C29.187393,179.425735 29.031973,178.759506 28.876553,178.093277 
	C31.817574,177.705246 34.758595,177.317200 38.076195,176.943207 
z"/>
<path fill="#5987A5" opacity="1.000000" stroke="none" 
	d="
M27.594906,180.999023 
	C26.465689,180.615524 25.787794,180.180145 25.053219,179.422028 
	C26.467203,179.013443 27.937872,178.927582 29.408541,178.841721 
	C28.954437,179.543518 28.500334,180.245316 27.594906,180.999023 
z"/>
<path fill="#5987A5" opacity="1.000000" stroke="none" 
	d="
M54.747082,193.841019 
	C54.559189,194.047409 54.229595,194.032333 53.761806,193.959076 
	C53.613365,193.632217 53.604328,193.341095 53.595299,193.049957 
	C53.931591,193.247314 54.267883,193.444672 54.747082,193.841019 
z"/>
<path fill="#5987A5" opacity="1.000000" stroke="none" 
	d="
M30.111404,189.636642 
	C29.705936,189.767456 29.074047,189.665985 28.228077,189.318451 
	C28.637659,189.183044 29.261322,189.293701 30.111404,189.636642 
z"/>
<path fill="#5987A5" opacity="1.000000" stroke="none" 
	d="
M19.685326,180.946777 
	C19.473425,181.273270 18.936380,181.598877 18.065941,181.908081 
	C18.275091,181.576416 18.817636,181.261154 19.685326,180.946777 
z"/>
<path fill="#5283A2" opacity="1.000000" stroke="none" 
	d="
M155.035538,245.689209 
	C154.712814,245.515533 154.383728,245.040680 154.040863,244.259842 
	C154.361099,244.431915 154.695129,244.909958 155.035538,245.689209 
z"/>
<path fill="#5282A1" opacity="1.000000" stroke="none" 
	d="
M159.003204,191.008438 
	C159.192596,190.795670 159.362717,190.557968 159.532822,190.320267 
	C159.485565,190.582947 159.438324,190.845612 159.168060,191.021088 
	C158.945038,190.933899 158.983932,190.983505 159.003204,191.008438 
z"/>
<path fill="#43799B" opacity="1.000000" stroke="none" 
	d="
M15.702415,222.084076 
	C15.891025,222.402344 15.711754,222.643433 15.229880,222.905960 
	C15.154286,222.688446 15.290038,222.381607 15.702415,222.084076 
z"/>
<path fill="#43799B" opacity="1.000000" stroke="none" 
	d="
M24.855331,222.714691 
	C24.570375,222.876144 24.357174,222.718170 24.112442,222.306244 
	C24.412615,221.985870 24.694674,222.100189 24.855331,222.714691 
z"/>
<path fill="#5283A2" opacity="1.000000" stroke="none" 
	d="
M153.991302,243.705109 
	C153.769699,243.739487 153.496536,243.493912 153.157379,242.974045 
	C153.374161,242.941559 153.656937,243.183365 153.991302,243.705109 
z"/>
<path fill="#FDFDFE" opacity="1.000000" stroke="none" 
	d="
M44.179840,266.160248 
	C49.065094,264.930389 53.626945,263.953308 58.158745,262.982635 
	C60.308510,272.458618 59.617958,275.419220 54.836788,277.735809 
	C50.978691,279.605164 46.618755,280.881592 43.376553,277.199951 
	C40.477921,273.908478 40.773975,269.884766 44.179840,266.160248 
z"/>
<path fill="#FBFCFD" opacity="1.000000" stroke="none" 
	d="
M139.295761,263.826599 
	C141.888596,263.787354 144.031662,263.787354 146.119202,263.787354 
	C148.549500,272.986145 146.423309,277.467957 139.037155,279.037811 
	C133.634384,280.186188 129.928406,278.150665 129.117386,273.589478 
	C128.138321,268.083252 131.389450,264.833771 139.295761,263.826599 
z"/>
</svg>