<svg version="1.1" id="Layer_1" xmlns="http://www.w3.org/2000/svg" xmlns:xlink="http://www.w3.org/1999/xlink" x="0px" y="0px"
	 width="100%" viewBox="0 0 225 225" enable-background="new 0 0 225 225" xml:space="preserve">
<path fill="#F0DB4F" opacity="1.000000" stroke="none" 
	d="
M225.000000,226.000000 
	C150.406296,226.000000 75.812576,226.000000 1.000000,226.000000 
	C1.000000,151.645920 1.000000,77.291618 1.468657,2.467859 
	C76.264252,2.015007 150.591187,2.031610 224.944473,2.511710 
	C224.980545,77.316803 224.990265,151.658401 225.000000,226.000000 
M122.312210,104.409897 
	C115.706230,104.409897 109.100250,104.409897 102.046051,104.409897 
	C102.046051,106.633583 102.046829,108.424057 102.045921,110.214539 
	C102.034584,132.682495 102.043137,155.150497 101.995239,177.618378 
	C101.985153,182.350449 100.878830,186.645004 95.880165,188.584305 
	C90.610580,190.628723 84.683716,188.946823 81.063950,184.431061 
	C79.644676,182.660477 78.440025,180.717865 76.978584,178.625931 
	C71.248291,182.125931 65.784081,185.463394 60.390064,188.758011 
	C66.110275,202.090714 77.444298,208.404236 94.288162,208.016739 
	C110.990387,207.632523 122.622208,196.968048 122.921852,180.363327 
	C123.369110,155.579269 122.981064,130.780136 123.036621,105.498360 
	C123.036621,105.498360 122.813148,105.054482 122.312210,104.409897 
M196.227844,112.303612 
	C188.972748,104.721886 179.723801,102.663612 169.756149,103.139336 
	C155.652206,103.812469 145.127258,111.684258 141.995453,123.502106 
	C138.459763,136.844025 143.386200,149.412369 155.482513,157.089188 
	C159.247833,159.478821 163.413788,161.248489 167.439484,163.213577 
	C171.915909,165.398682 176.515594,167.341599 180.924942,169.650940 
	C185.296921,171.940674 187.787491,175.620041 186.791931,180.699448 
	C185.801651,185.751892 181.988861,188.103226 177.258575,188.972107 
	C167.914505,190.688507 160.288361,187.846634 154.233124,180.381668 
	C153.204239,179.113251 150.322769,177.896439 149.145782,178.452362 
	C144.242615,180.768219 139.663788,183.770767 134.743820,186.651550 
	C135.571274,188.098190 136.165787,189.269852 136.878876,190.364243 
	C146.660141,205.375793 167.254227,211.943985 186.667343,206.265182 
	C198.009003,202.947479 205.722427,195.970688 207.606674,184.013763 
	C209.506470,171.958145 206.328751,161.392990 195.820557,154.244553 
	C190.910324,150.904251 185.400269,148.426025 180.086151,145.705353 
	C175.801727,143.511826 171.245987,141.811676 167.096573,139.400543 
	C162.257782,136.588837 160.677551,132.041336 162.290588,127.482887 
	C163.762543,123.323174 168.688614,120.226456 173.729477,121.798042 
	C178.188553,123.188232 182.101944,126.328781 187.324173,129.305222 
	C191.056366,126.915207 196.315445,123.547401 202.054214,119.872414 
	C200.063934,117.239807 198.395370,115.032761 196.227844,112.303612 
z"/>
<path fill="#F3E37D" opacity="1.000000" stroke="none" 
	d="
M224.918121,2.048213 
	C150.591187,2.031610 76.264252,2.015007 1.468657,1.999202 
	C2.500000,1.666667 3.999812,1.042680 5.500027,1.041707 
	C78.999992,0.994067 152.500000,1.000000 225.729462,1.510566 
	C225.278656,2.030159 225.098389,2.039186 224.918121,2.048213 
z"/>
<path fill="#F3E275" opacity="1.000000" stroke="none" 
	d="
M224.944473,2.511710 
	C225.098389,2.039186 225.278656,2.030159 225.729462,2.010566 
	C226.000000,76.666664 226.000000,151.333328 225.500000,226.000000 
	C224.990265,151.658401 224.980545,77.316803 224.944473,2.511710 
z"/>
<path fill="#333430" opacity="1.000000" stroke="none" 
	d="
M196.477325,112.564667 
	C198.395370,115.032761 200.063934,117.239807 202.054214,119.872414 
	C196.315445,123.547401 191.056366,126.915207 187.324173,129.305222 
	C182.101944,126.328781 178.188553,123.188232 173.729477,121.798042 
	C168.688614,120.226456 163.762543,123.323174 162.290588,127.482887 
	C160.677551,132.041336 162.257782,136.588837 167.096573,139.400543 
	C171.245987,141.811676 175.801727,143.511826 180.086151,145.705353 
	C185.400269,148.426025 190.910324,150.904251 195.820557,154.244553 
	C206.328751,161.392990 209.506470,171.958145 207.606674,184.013763 
	C205.722427,195.970688 198.009003,202.947479 186.667343,206.265182 
	C167.254227,211.943985 146.660141,205.375793 136.878876,190.364243 
	C136.165787,189.269852 135.571274,188.098190 134.743820,186.651550 
	C139.663788,183.770767 144.242615,180.768219 149.145782,178.452362 
	C150.322769,177.896439 153.204239,179.113251 154.233124,180.381668 
	C160.288361,187.846634 167.914505,190.688507 177.258575,188.972107 
	C181.988861,188.103226 185.801651,185.751892 186.791931,180.699448 
	C187.787491,175.620041 185.296921,171.940674 180.924942,169.650940 
	C176.515594,167.341599 171.915909,165.398682 167.439484,163.213577 
	C163.413788,161.248489 159.247833,159.478821 155.482513,157.089188 
	C143.386200,149.412369 138.459763,136.844025 141.995453,123.502106 
	C145.127258,111.684258 155.652206,103.812469 169.756149,103.139336 
	C179.723801,102.663612 188.972748,104.721886 196.477325,112.564667 
z"/>
<path fill="#333430" opacity="1.000000" stroke="none" 
	d="
M122.948387,105.987427 
	C122.981064,130.780136 123.369110,155.579269 122.921852,180.363327 
	C122.622208,196.968048 110.990387,207.632523 94.288162,208.016739 
	C77.444298,208.404236 66.110275,202.090714 60.390064,188.758011 
	C65.784081,185.463394 71.248291,182.125931 76.978584,178.625931 
	C78.440025,180.717865 79.644676,182.660477 81.063950,184.431061 
	C84.683716,188.946823 90.610580,190.628723 95.880165,188.584305 
	C100.878830,186.645004 101.985153,182.350449 101.995239,177.618378 
	C102.043137,155.150497 102.034584,132.682495 102.045921,110.214539 
	C102.046829,108.424057 102.046051,106.633583 102.046051,104.409897 
	C109.100250,104.409897 115.706230,104.409897 122.476517,104.849823 
	C122.537567,105.585411 122.640091,105.817970 122.948387,105.987427 
z"/>
<path fill="#1A202E" opacity="1.000000" stroke="none" 
	d="
M122.992508,105.742889 
	C122.640091,105.817970 122.537567,105.585411 122.726990,105.172119 
	C122.813148,105.054482 123.036621,105.498360 122.992508,105.742889 
z"/>
</svg>