<svg version="1.1" id="Layer_1" xmlns="http://www.w3.org/2000/svg" xmlns:xlink="http://www.w3.org/1999/xlink" x="0px" y="0px"
	 width="100%" viewBox="0 0 225 225" enable-background="new 0 0 225 225" xml:space="preserve">
<path fill="#376890" opacity="1.000000" stroke="none" 
	d="
M96.000000,1.000001 
	C106.687561,1.000000 117.375122,1.000000 128.711945,1.363548 
	C132.319778,2.181586 135.279343,2.629737 138.236740,3.091650 
	C151.930023,5.230391 166.737518,15.092045 165.839508,35.352867 
	C165.176331,50.315632 165.748337,65.331505 165.697708,80.323471 
	C165.636627,98.413925 154.488342,109.503479 136.294800,109.560410 
	C119.637032,109.612534 102.978058,109.464233 86.321266,109.602318 
	C66.057465,109.770294 51.900036,124.164131 51.827248,144.448563 
	C51.800510,151.899796 51.822933,159.351212 51.822933,167.213638 
	C44.673737,167.213638 38.045734,167.387115 31.430544,167.170029 
	C23.035776,166.894547 15.947379,163.302231 11.889230,156.042297 
	C8.457182,149.902420 6.397048,142.966660 4.010645,136.282852 
	C2.706185,132.629333 1.984494,128.767761 1.000000,125.000000 
	C1.000000,116.979103 1.000000,108.958199 1.359787,100.313461 
	C2.656464,95.474045 3.538921,91.245491 4.539573,87.045097 
	C9.109809,67.860794 21.149427,58.366882 40.941956,58.348801 
	C62.741688,58.328884 84.541451,58.344135 106.341202,58.344063 
	C108.116386,58.344055 109.891579,58.344063 111.804626,58.344063 
	C111.804626,55.828350 111.804626,53.950893 111.804626,51.495262 
	C93.929054,51.495262 76.385475,51.495262 58.795555,51.495262 
	C58.795555,42.302132 58.549248,33.679852 58.863792,25.078077 
	C59.188053,16.210554 63.854542,9.969261 72.151588,6.961520 
	C77.118851,5.160848 82.395744,4.205826 87.546585,2.923429 
	C90.350235,2.225408 93.181297,1.637547 96.000000,1.000001 
M89.251465,34.697472 
	C94.059166,27.644354 91.973312,19.895100 84.725426,17.882538 
	C80.159172,16.614601 75.620171,18.467102 73.224411,22.576441 
	C70.807869,26.721407 71.604523,32.036057 75.131462,35.298801 
	C78.859688,38.747749 83.400986,38.722446 89.251465,34.697472 
z"/>
<path fill="#F2BC31" opacity="1.000000" stroke="none" 
	d="
M125.000000,226.000000 
	C117.979050,226.000000 110.958107,226.000000 103.261566,225.675781 
	C91.720688,222.979935 80.709023,221.071579 71.464340,214.134583 
	C65.428986,209.605743 61.216042,203.860535 61.108356,196.227386 
	C60.850555,177.953461 60.732635,159.665131 61.183620,141.398041 
	C61.483181,129.264450 71.439095,118.743530 83.345741,117.238174 
	C84.168190,117.608070 84.643074,117.878662 85.118752,117.880066 
	C102.600105,117.931625 120.081635,117.987389 137.562683,117.921303 
	C138.703751,117.916985 139.841171,116.952232 141.406845,116.338730 
	C161.394104,114.910782 174.781967,100.602966 174.924103,80.891556 
	C174.974335,73.925270 175.049164,66.959167 175.392883,59.981773 
	C175.859436,59.957989 176.045898,59.945408 176.686218,59.918102 
	C184.436264,59.563885 191.732437,59.224388 199.418213,58.880455 
	C206.232941,59.900269 211.533524,63.133579 214.550323,68.718353 
	C217.650345,74.457191 219.929489,80.700989 222.007904,86.911209 
	C223.756012,92.134445 224.700012,97.626793 226.000000,103.000000 
	C226.000000,110.687576 226.000000,118.375153 225.663208,126.700760 
	C221.651459,137.249100 218.554733,147.428986 214.103424,156.977371 
	C211.004562,163.624664 204.721558,167.097839 196.654327,166.776047 
	C195.340515,166.368378 194.371582,166.034149 193.402237,166.032928 
	C168.673050,166.001877 143.943771,165.986374 119.214729,166.054214 
	C117.822281,166.058044 116.431854,166.797409 114.908722,167.543701 
	C114.776955,169.818893 114.776955,171.744812 114.776955,174.242996 
	C132.642090,174.242996 150.169769,174.242996 168.116272,174.242996 
	C168.116272,180.939163 167.953033,187.068573 168.153961,193.186050 
	C168.467346,202.727844 164.512253,210.098816 156.546799,214.906433 
	C151.632416,217.872528 146.147934,220.035446 140.702850,221.939728 
	C135.617249,223.718292 130.245697,224.679214 125.000000,226.000000 
M135.129791,201.312958 
	C138.925980,208.369980 145.657928,210.408096 150.945541,206.101196 
	C154.874588,202.900925 155.965118,197.506149 153.569641,193.120071 
	C151.363434,189.080536 146.475647,186.955185 142.143967,188.151871 
	C136.894073,189.602234 134.306152,194.078079 135.129791,201.312958 
M143.528061,117.503082 
	C143.528061,117.503082 143.486069,117.518684 143.528061,117.503082 
z"/>
<path fill="#FEFEFE" opacity="1.000000" stroke="none" 
	d="
M82.998543,117.013329 
	C71.439095,118.743530 61.483181,129.264450 61.183620,141.398041 
	C60.732635,159.665131 60.850555,177.953461 61.108356,196.227386 
	C61.216042,203.860535 65.428986,209.605743 71.464340,214.134583 
	C80.709023,221.071579 91.720688,222.979935 102.792992,225.675781 
	C69.073418,226.000000 35.146839,226.000000 1.000000,226.000000 
	C1.000000,192.646103 1.000000,159.291702 1.000000,125.468658 
	C1.984494,128.767761 2.706185,132.629333 4.010645,136.282852 
	C6.397048,142.966660 8.457182,149.902420 11.889230,156.042297 
	C15.947379,163.302231 23.035776,166.894547 31.430544,167.170029 
	C38.045734,167.387115 44.673737,167.213638 51.822933,167.213638 
	C51.822933,159.351212 51.800510,151.899796 51.827248,144.448563 
	C51.900036,124.164131 66.057465,109.770294 86.321266,109.602318 
	C102.978058,109.464233 119.637032,109.612534 136.294800,109.560410 
	C154.488342,109.503479 165.636627,98.413925 165.697708,80.323471 
	C165.748337,65.331505 165.176331,50.315632 165.839508,35.352867 
	C166.737518,15.092045 151.930023,5.230391 138.236740,3.091650 
	C135.279343,2.629737 132.319778,2.181586 129.180603,1.363548 
	C161.262100,1.000000 193.524200,1.000000 226.000000,1.000000 
	C226.000000,34.687260 226.000000,68.374969 226.000000,102.531342 
	C224.700012,97.626793 223.756012,92.134445 222.007904,86.911209 
	C219.929489,80.700989 217.650345,74.457191 214.550323,68.718353 
	C211.533524,63.133579 206.232941,59.900269 199.042374,58.712048 
	C190.581314,58.725765 182.885666,58.903454 175.110992,59.304039 
	C175.031937,59.526939 175.112778,59.992977 175.112778,59.992977 
	C175.049164,66.959167 174.974335,73.925270 174.924103,80.891556 
	C174.781967,100.602966 161.394104,114.910782 140.946960,116.254425 
	C122.997589,116.248062 105.934601,116.204536 88.871834,116.248421 
	C86.913429,116.253456 84.956276,116.746536 82.998543,117.013329 
z"/>
<path fill="#FFFEFD" opacity="1.000000" stroke="none" 
	d="
M196.999039,167.004639 
	C204.721558,167.097839 211.004562,163.624664 214.103424,156.977371 
	C218.554733,147.428986 221.651459,137.249100 225.663208,127.169388 
	C226.000000,159.927658 226.000000,192.855331 226.000000,226.000000 
	C192.646088,226.000000 159.291702,226.000000 125.468658,226.000000 
	C130.245697,224.679214 135.617249,223.718292 140.702850,221.939728 
	C146.147934,220.035446 151.632416,217.872528 156.546799,214.906433 
	C164.512253,210.098816 168.467346,202.727844 168.153961,193.186050 
	C167.953033,187.068573 168.116272,180.939163 168.116272,174.242996 
	C150.169769,174.242996 132.642090,174.242996 114.776955,174.242996 
	C114.776955,171.744812 114.776955,169.818893 115.373917,167.572723 
	C122.103462,167.258163 128.236145,167.287827 134.368622,167.265228 
	C155.245468,167.188309 176.122238,167.092957 196.999039,167.004639 
z"/>
<path fill="#FEFEFE" opacity="1.000000" stroke="none" 
	d="
M95.531342,1.000001 
	C93.181297,1.637547 90.350235,2.225408 87.546585,2.923429 
	C82.395744,4.205826 77.118851,5.160848 72.151588,6.961520 
	C63.854542,9.969261 59.188053,16.210554 58.863792,25.078077 
	C58.549248,33.679852 58.795555,42.302132 58.795555,51.495262 
	C76.385475,51.495262 93.929054,51.495262 111.804626,51.495262 
	C111.804626,53.950893 111.804626,55.828350 111.804626,58.344063 
	C109.891579,58.344063 108.116386,58.344055 106.341202,58.344063 
	C84.541451,58.344135 62.741688,58.328884 40.941956,58.348801 
	C21.149427,58.366882 9.109809,67.860794 4.539573,87.045097 
	C3.538921,91.245491 2.656464,95.474045 1.359787,99.844818 
	C1.000000,67.074577 1.000000,34.149151 1.000000,1.000000 
	C32.353874,1.000000 63.708279,1.000000 95.531342,1.000001 
z"/>
<path fill="#F9FAFC" opacity="1.000000" stroke="none" 
	d="
M88.972298,34.960350 
	C83.400986,38.722446 78.859688,38.747749 75.131462,35.298801 
	C71.604523,32.036057 70.807869,26.721407 73.224411,22.576441 
	C75.620171,18.467102 80.159172,16.614601 84.725426,17.882538 
	C91.973312,19.895100 94.059166,27.644354 88.972298,34.960350 
z"/>
<path fill="#FFFDF9" opacity="1.000000" stroke="none" 
	d="
M135.039368,200.954376 
	C134.306152,194.078079 136.894073,189.602234 142.143967,188.151871 
	C146.475647,186.955185 151.363434,189.080536 153.569641,193.120071 
	C155.965118,197.506149 154.874588,202.900925 150.945541,206.101196 
	C145.657928,210.408096 138.925980,208.369980 135.039368,200.954376 
z"/>
<path fill="#F9C02B" opacity="1.000000" stroke="none" 
	d="
M83.345741,117.238174 
	C84.956276,116.746536 86.913429,116.253456 88.871834,116.248421 
	C105.934601,116.204536 122.997589,116.248062 140.520401,116.349930 
	C139.841171,116.952232 138.703751,117.916985 137.562683,117.921303 
	C120.081635,117.987389 102.600105,117.931625 85.118752,117.880066 
	C84.643074,117.878662 84.168190,117.608070 83.345741,117.238174 
z"/>
<path fill="#F7BD20" opacity="1.000000" stroke="none" 
	d="
M196.654327,166.776047 
	C176.122238,167.092957 155.245468,167.188309 134.368622,167.265228 
	C128.236145,167.287827 122.103462,167.258163 115.505676,167.223450 
	C116.431854,166.797409 117.822281,166.058044 119.214729,166.054214 
	C143.943771,165.986374 168.673050,166.001877 193.402237,166.032928 
	C194.371582,166.034149 195.340515,166.368378 196.654327,166.776047 
z"/>
<path fill="#FBCD57" opacity="1.000000" stroke="none" 
	d="
M175.190033,59.081142 
	C182.885666,58.903454 190.581314,58.725765 198.652771,58.716484 
	C191.732437,59.224388 184.436264,59.563885 176.529190,59.754265 
	C175.693878,59.404995 175.451126,59.230324 175.190033,59.081142 
z"/>
<path fill="#F2B924" opacity="1.000000" stroke="none" 
	d="
M175.110992,59.304039 
	C175.451126,59.230324 175.693878,59.404995 176.075317,59.768990 
	C176.045898,59.945408 175.859436,59.957989 175.392883,59.981773 
	C175.112778,59.992977 175.031937,59.526939 175.110992,59.304039 
z"/>
<path fill="#F9C02B" opacity="1.000000" stroke="none" 
	d="
M143.507065,117.510880 
	C143.486069,117.518684 143.528061,117.503082 143.507065,117.510880 
z"/>
</svg>